<mxfile host="app.diagrams.net" modified="2024-05-31T10:22:16.974Z" agent="Mozilla/5.0 (Windows NT 10.0; Win64; x64) AppleWebKit/537.36 (KHTML, like Gecko) Chrome/123.0.0.0 Safari/537.36 OPR/109.0.0.0 (Edition Yx GX 03)" version="24.4.11" etag="_LMrYb7j66yRzBWC5VYG" type="github">
  <diagram name="Страница — 1" id="T2stIIWYOulx6G7o4MSI">
    <mxGraphModel>
      <root>
        <mxCell id="0" />
        <mxCell id="1" parent="0" />
      </root>
    </mxGraphModel>
  </diagram>
</mxfile>
